<svg width="513" height="145" viewBox="0 0 513 145" fill="none" xmlns="http://www.w3.org/2000/svg">
<g clip-path="url(#clip0_31_2)">
<path d="M221.184 4.45455L223.841 9.04972H223.954L226.639 4.45455H230.574L226.184 11.7273L230.716 19H226.682L223.954 14.3551H223.841L221.113 19H217.108L221.618 11.7273L217.221 4.45455H221.184ZM234.101 19V16.1449H236.707V16.0312C235.907 15.5199 235.273 14.8499 234.804 14.0213C234.335 13.1927 234.101 12.196 234.101 11.0312C234.101 10.0417 234.271 9.13258 234.612 8.30398C234.958 7.47538 235.445 6.76042 236.075 6.15909C236.705 5.55303 237.448 5.08428 238.305 4.75284C239.162 4.4214 240.104 4.25568 241.132 4.25568C242.159 4.25568 243.102 4.4214 243.959 4.75284C244.816 5.08428 245.559 5.55303 246.189 6.15909C246.818 6.76042 247.304 7.47538 247.645 8.30398C247.99 9.13258 248.163 10.0417 248.163 11.0312C248.163 12.196 247.929 13.1927 247.46 14.0213C246.991 14.8499 246.357 15.5199 245.557 16.0312V16.1449H248.163V19H242.197V15.4205C242.671 15.2311 243.087 14.9375 243.447 14.5398C243.812 14.142 244.094 13.6709 244.292 13.1264C244.496 12.5819 244.598 11.9901 244.598 11.3509C244.598 10.5791 244.451 9.89252 244.157 9.29119C243.864 8.68987 243.457 8.21875 242.936 7.87784C242.415 7.5322 241.814 7.35938 241.132 7.35938C240.625 7.35938 240.159 7.45881 239.733 7.65767C239.311 7.8518 238.947 8.12879 238.639 8.48864C238.331 8.84848 238.092 9.27225 237.922 9.75994C237.751 10.2429 237.666 10.7732 237.666 11.3509C237.666 11.9901 237.765 12.5819 237.964 13.1264C238.168 13.6709 238.45 14.142 238.809 14.5398C239.174 14.9375 239.593 15.2311 240.067 15.4205V19H234.101ZM252.075 19V4.45455H258.084C259.173 4.45455 260.113 4.66761 260.904 5.09375C261.699 5.51515 262.312 6.10464 262.743 6.86222C263.174 7.61506 263.389 8.491 263.389 9.49006C263.389 10.4938 263.169 11.3722 262.729 12.125C262.293 12.8731 261.671 13.4531 260.861 13.8651C260.051 14.277 259.09 14.483 257.977 14.483H254.27V11.7131H257.324C257.854 11.7131 258.297 11.6207 258.652 11.4361C259.012 11.2514 259.284 10.9934 259.469 10.6619C259.654 10.3258 259.746 9.93513 259.746 9.49006C259.746 9.04025 259.654 8.65199 259.469 8.32528C259.284 7.99384 259.012 7.73816 258.652 7.55824C258.292 7.37831 257.85 7.28835 257.324 7.28835H255.591V19H252.075ZM270.638 4.45455V19H267.122V4.45455H270.638ZM285.868 16.1733V19H276.642V16.1733H285.868ZM285.733 4.42614V7.28125H277.189V4.42614H285.733ZM283.297 11.6278V11.7628L278.204 19H275.349V17.5014L279.66 11.6989L275.349 5.93182V4.42614H278.204L283.297 11.6278ZM217.092 31.3097V28.4545H229.386V31.3097H224.975V43H221.509V31.3097H217.092ZM233.103 43V28.4545H243.245V31.3097H236.618V34.2926H242.726V37.1548H236.618V40.1449H243.245V43H233.103ZM250.593 43H246.814L251.722 28.4545H256.403L261.31 43H257.532L254.116 32.1193H254.002L250.593 43ZM264.876 43V28.4545H268.392V34.2926H274.123V28.4545H277.632V43H274.123V37.1548H268.392V43H264.876ZM285.921 28.4545L285.594 38.5469H282.675L282.349 28.4545H285.921ZM284.131 43.206C283.625 43.206 283.189 43.026 282.824 42.6662C282.465 42.3063 282.285 41.8707 282.285 41.3594C282.285 40.8575 282.465 40.429 282.824 40.0739C283.189 39.714 283.625 39.5341 284.131 39.5341C284.619 39.5341 285.047 39.714 285.417 40.0739C285.791 40.429 285.978 40.8575 285.978 41.3594C285.978 41.7003 285.89 42.0104 285.715 42.2898C285.545 42.5691 285.32 42.7917 285.04 42.9574C284.766 43.1231 284.463 43.206 284.131 43.206Z" fill="white"/>
<path d="M192.977 76.3047V65.3956H194.298V70.8075H194.426L199.326 65.3956H201.052L196.471 70.3175L201.052 76.3047H199.454L195.661 71.2337L194.298 72.7678V76.3047H192.977ZM204.709 76.3047H203.324L207.33 65.3956H208.694L212.699 76.3047H211.314L208.055 67.1214H207.969L204.709 76.3047ZM205.221 72.0433H210.803V73.2152H205.221V72.0433ZM214.028 66.5675V65.3956H222.209V66.5675H218.779V76.3047H217.458V66.5675H214.028ZM224.921 76.3047H223.536L227.542 65.3956H228.906L232.911 76.3047H231.526L228.266 67.1214H228.181L224.921 76.3047ZM225.433 72.0433H231.015V73.2152H225.433V72.0433ZM242.288 70.2642V71.4361H237.686V70.2642H242.288ZM244.802 70.8501C244.802 72.0007 244.595 72.995 244.179 73.8331C243.764 74.6712 243.194 75.3175 242.469 75.772C241.745 76.2266 240.917 76.4538 239.987 76.4538C239.057 76.4538 238.229 76.2266 237.505 75.772C236.78 75.3175 236.21 74.6712 235.795 73.8331C235.379 72.995 235.172 72.0007 235.172 70.8501C235.172 69.6996 235.379 68.7053 235.795 67.8672C236.21 67.0291 236.78 66.3828 237.505 65.9283C238.229 65.4737 239.057 65.2464 239.987 65.2464C240.917 65.2464 241.745 65.4737 242.469 65.9283C243.194 66.3828 243.764 67.0291 244.179 67.8672C244.595 68.7053 244.802 69.6996 244.802 70.8501ZM243.524 70.8501C243.524 69.9055 243.366 69.1083 243.05 68.4585C242.737 67.8086 242.313 67.3168 241.777 66.983C241.244 66.6491 240.648 66.4822 239.987 66.4822C239.327 66.4822 238.728 66.6491 238.192 66.983C237.659 67.3168 237.235 67.8086 236.919 68.4585C236.606 69.1083 236.45 69.9055 236.45 70.8501C236.45 71.7947 236.606 72.592 236.919 73.2418C237.235 73.8917 237.659 74.3835 238.192 74.7173C238.728 75.0511 239.327 75.218 239.987 75.218C240.648 75.218 241.244 75.0511 241.777 74.7173C242.313 74.3835 242.737 73.8917 243.05 73.2418C243.366 72.592 243.524 71.7947 243.524 70.8501ZM248.524 76.3047V65.3956H255.107V66.5675H249.845V70.2536H254.767V71.4254H249.845V75.1328H255.193V76.3047H248.524ZM266.148 75.0689V76.3047H259.244V75.0689H266.148ZM265.807 65.63V66.8658H258.989V65.63H265.807ZM263.74 70.9141V71.0632L259.564 76.3047H258.648V75.1967L262.121 70.9993L258.648 66.7592V65.63H259.564L263.74 70.9141ZM269.951 76.3047V65.3956H271.272V70.2536H277.089V65.3956H278.41V76.3047H277.089V71.4254H271.272V76.3047H269.951ZM288.274 76.3047V65.3956H289.595V70.8075H289.723L294.623 65.3956H296.349L291.768 70.3175L296.349 76.3047H294.751L290.958 71.2337L289.595 72.7678V76.3047H288.274ZM300.006 76.3047H298.621L302.627 65.3956H303.991L307.996 76.3047H306.611L303.351 67.1214H303.266L300.006 76.3047ZM300.518 72.0433H306.1V73.2152H300.518V72.0433ZM312.517 65.3956V76.3047H311.196V65.3956H312.517ZM210.138 94.3047H208.753L212.759 83.3956H214.122L218.128 94.3047H216.743L213.483 85.1214H213.398L210.138 94.3047ZM210.649 90.0433H216.232V91.2152H210.649V90.0433ZM229.978 83.3956V94.3047H228.7L222.755 85.7393H222.648V94.3047H221.327V83.3956H222.606L228.572 91.9822H228.678V83.3956H229.978ZM234.569 94.3047H233.184L237.189 83.3956H238.553L242.559 94.3047H241.174L237.914 85.1214H237.829L234.569 94.3047ZM235.08 90.0433H240.663V91.2152H235.08V90.0433ZM246.205 94.3047H244.821L248.826 83.3956H250.19L254.196 94.3047H252.811L249.551 85.1214H249.465L246.205 94.3047ZM257.395 94.3047V83.3956H258.716V88.2536H264.533V83.3956H265.854V94.3047H264.533V89.4254H258.716V94.3047H257.395ZM277.711 83.3956H279.032V87.5078C279.032 88.4027 278.839 89.1591 278.452 89.777C278.068 90.3949 277.543 90.8636 276.875 91.1832C276.211 91.5028 275.46 91.6626 274.622 91.6626H274.409C273.571 91.6626 272.818 91.5028 272.15 91.1832C271.486 90.8636 270.961 90.3949 270.574 89.777C270.19 89.1591 269.998 88.4027 269.998 87.5078V83.3956H271.319V87.5078C271.319 88.1648 271.452 88.7152 271.719 89.1591C271.989 89.5994 272.356 89.9315 272.821 90.1552C273.287 90.3789 273.816 90.4908 274.409 90.4908H274.622C275.215 90.4908 275.744 90.3789 276.209 90.1552C276.674 89.9315 277.04 89.5994 277.307 89.1591C277.576 88.7152 277.711 88.1648 277.711 87.5078V83.3956ZM275.176 83.3956V94.3047H273.855V83.3956H275.176ZM283.173 94.3047V83.3956H284.494V88.2536H290.311V83.3956H291.632V94.3047H290.311V89.4254H284.494V94.3047H283.173ZM297.268 83.3956L297.162 91.2365H295.926L295.819 83.3956H297.268ZM296.544 94.3899C296.281 94.3899 296.055 94.2958 295.867 94.1076C295.679 93.9194 295.585 93.6939 295.585 93.4311C295.585 93.1683 295.679 92.9428 295.867 92.7546C296.055 92.5664 296.281 92.4723 296.544 92.4723C296.806 92.4723 297.032 92.5664 297.22 92.7546C297.408 92.9428 297.502 93.1683 297.502 93.4311C297.502 93.6051 297.458 93.7649 297.369 93.9105C297.284 94.0561 297.169 94.1733 297.023 94.2621C296.881 94.3473 296.721 94.3899 296.544 94.3899Z" fill="white"/>
<path d="M4.30247 65.3956H5.81525L8.84082 70.4879H8.96866L11.9942 65.3956H13.507L9.56525 71.8089V76.3047H8.24423V71.8089L4.30247 65.3956ZM24.8761 65.3956V76.3047H23.555V66.5675H18.0579V76.3047H16.7369V65.3956H24.8761ZM38.2453 70.8501C38.2453 72.0007 38.0376 72.995 37.6221 73.8331C37.2066 74.6712 36.6366 75.3175 35.9122 75.772C35.1878 76.2266 34.3604 76.4538 33.43 76.4538C32.4996 76.4538 31.6721 76.2266 30.9477 75.772C30.2233 75.3175 29.6533 74.6712 29.2378 73.8331C28.8224 72.995 28.6146 72.0007 28.6146 70.8501C28.6146 69.6996 28.8224 68.7053 29.2378 67.8672C29.6533 67.0291 30.2233 66.3828 30.9477 65.9283C31.6721 65.4737 32.4996 65.2464 33.43 65.2464C34.3604 65.2464 35.1878 65.4737 35.9122 65.9283C36.6366 66.3828 37.2066 67.0291 37.6221 67.8672C38.0376 68.7053 38.2453 69.6996 38.2453 70.8501ZM36.9669 70.8501C36.9669 69.9055 36.8089 69.1083 36.4928 68.4585C36.1803 67.8086 35.7559 67.3168 35.2197 66.983C34.6871 66.6491 34.0905 66.4822 33.43 66.4822C32.7694 66.4822 32.1711 66.6491 31.6349 66.983C31.1022 67.3168 30.6778 67.8086 30.3618 68.4585C30.0493 69.1083 29.893 69.9055 29.893 70.8501C29.893 71.7947 30.0493 72.592 30.3618 73.2418C30.6778 73.8917 31.1022 74.3835 31.6349 74.7173C32.1711 75.0511 32.7694 75.218 33.43 75.218C34.0905 75.218 34.6871 75.0511 35.2197 74.7173C35.7559 74.3835 36.1803 73.8917 36.4928 73.2418C36.8089 72.592 36.9669 71.7947 36.9669 70.8501ZM49.1256 75.0689V76.3047H42.2222V75.0689H49.1256ZM48.7847 65.63V66.8658H41.9665V65.63H48.7847ZM46.718 70.9141V71.0632L42.5418 76.3047H41.6256V75.1967L45.0986 70.9993L41.6256 66.7592V65.63H42.5418L46.718 70.9141ZM52.3328 66.5675V65.3956H60.5146V66.5675H57.0843V76.3047H55.7632V66.5675H52.3328ZM65.8858 76.3047V65.3956H67.2069V70.2536H73.0236V65.3956H74.3446V76.3047H73.0236V71.4254H67.2069V76.3047H65.8858ZM63.7978 67.2067L64.16 64.7138H65.5236L64.6713 67.2067H63.7978ZM78.488 76.3047V65.3956H82.1741C83.0299 65.3956 83.7295 65.5501 84.2728 65.859C84.8197 66.1644 85.2245 66.5781 85.4873 67.1001C85.7501 67.6222 85.8815 68.2045 85.8815 68.8473C85.8815 69.4901 85.7501 70.0742 85.4873 70.5998C85.2281 71.1254 84.8268 71.5444 84.2835 71.8569C83.7401 72.1658 83.0441 72.3203 82.1954 72.3203H79.5534V71.1484H82.1528C82.7387 71.1484 83.2093 71.0472 83.5644 70.8448C83.9195 70.6424 84.1769 70.369 84.3367 70.0245C84.5001 69.6765 84.5818 69.2841 84.5818 68.8473C84.5818 68.4105 84.5001 68.0199 84.3367 67.6754C84.1769 67.331 83.9177 67.0611 83.559 66.8658C83.2004 66.6669 82.7245 66.5675 82.1315 66.5675H79.809V76.3047H78.488ZM90.8305 65.3956V76.3047H89.5095V65.3956H90.8305ZM94.2548 76.3047V75.1328H101.158V76.3047H94.2548ZM94.894 71.3402V70.1683H100.476V71.3402H94.894ZM94.2761 66.5675V65.3956H101.052V66.5675H94.2761ZM104.58 76.3047V65.3956H105.901V70.2536H111.718V65.3956H113.039V76.3047H111.718V71.4254H105.901V76.3047H104.58Z" fill="white"/>
<path d="M16.8867 94.3047V83.3956H19.5234V92.1634H24.0617V94.3047H16.8867ZM29.5634 83.3956V94.3047H26.9267V83.3956H29.5634ZM35.1956 83.3956L37.6353 91.3857H37.7258L40.1654 83.3956H43.1164L39.4357 94.3047H35.9254L32.2446 83.3956H35.1956ZM45.791 94.3047V83.3956H53.3975V85.5369H48.4277V87.7741H53.0087V89.9208H48.4277V92.1634H53.3975V94.3047H45.791ZM71.1738 87.348H68.5104C68.4749 87.0746 68.4021 86.8278 68.292 86.6076C68.182 86.3874 68.0364 86.1992 67.8552 86.043C67.6741 85.8867 67.4593 85.7678 67.2107 85.6861C66.9657 85.6009 66.694 85.5582 66.3957 85.5582C65.8666 85.5582 65.4103 85.6879 65.0268 85.9471C64.6468 86.2063 64.3538 86.581 64.1479 87.071C63.9454 87.5611 63.8442 88.1541 63.8442 88.8501C63.8442 89.5746 63.9472 90.1818 64.1532 90.6719C64.3627 91.1584 64.6557 91.5259 65.0321 91.7745C65.4121 92.0195 65.8613 92.142 66.3797 92.142C66.6709 92.142 66.9355 92.1048 67.1734 92.0302C67.4149 91.9556 67.6262 91.8473 67.8073 91.7053C67.992 91.5597 68.1429 91.3839 68.2601 91.1779C68.3808 90.9684 68.4643 90.7322 68.5104 90.4695L71.1738 90.4854C71.1276 90.9684 70.9873 91.4442 70.753 91.913C70.5222 92.3817 70.2043 92.8097 69.7995 93.1967C69.3947 93.5803 68.9011 93.8857 68.3187 94.1129C67.7398 94.3402 67.0758 94.4538 66.3265 94.4538C65.3393 94.4538 64.455 94.2372 63.6738 93.804C62.8961 93.3672 62.2817 92.7315 61.8307 91.897C61.3797 91.0625 61.1543 90.0469 61.1543 88.8501C61.1543 87.6499 61.3833 86.6325 61.8414 85.7979C62.2995 84.9634 62.9192 84.3295 63.7004 83.8963C64.4817 83.4631 65.357 83.2464 66.3265 83.2464C66.987 83.2464 67.5978 83.3388 68.1589 83.5234C68.7199 83.7045 69.2136 83.9709 69.6397 84.3224C70.0658 84.6705 70.4121 85.0984 70.6784 85.6062C70.9447 86.114 71.1099 86.6946 71.1738 87.348ZM74.1826 94.3047V83.3956H76.8193V87.7741H81.1179V83.3956H83.7493V94.3047H81.1179V89.9208H76.8193V94.3047H74.1826ZM89.263 94.3047H86.4292L90.11 83.3956H93.6203L97.301 94.3047H94.4672L91.9051 86.1442H91.8198L89.263 94.3047ZM88.8848 90.0114H94.8081V92.0142H88.8848V90.0114ZM98.2563 85.5369V83.3956H107.477V85.5369H104.169V94.3047H101.57V85.5369H98.2563Z" fill="#F1C300"/>
<path d="M412.45 65.3956V76.3047H411.129V66.5675H405.632V76.3047H404.311V65.3956H412.45ZM417.062 76.3047H415.677L419.683 65.3956H421.047L425.052 76.3047H423.668L420.408 67.1214H420.322L417.062 76.3047ZM417.574 72.0433H423.156V73.2152H417.574V72.0433ZM429.573 65.3956V76.3047H428.252V65.3956H429.573ZM434.361 65.3956L437.173 69.9339H437.258L440.071 65.3956H441.626L438.196 70.8501L441.626 76.3047H440.071L437.258 71.8516H437.173L434.361 76.3047H432.805L436.321 70.8501L432.805 65.3956H434.361ZM453.496 65.3956V76.3047H452.218L446.273 67.7393H446.166V76.3047H444.845V65.3956H446.124L452.09 73.9822H452.196V65.3956H453.496ZM458.96 65.3956V76.3047H457.639V65.3956H458.96ZM462.172 76.3047L466.177 65.3956H467.541L471.547 76.3047H462.172ZM463.983 75.1328H469.736L466.902 67.1214H466.816L463.983 75.1328ZM476.067 65.3956V76.3047H474.746V65.3956H476.067ZM480.663 76.3047H479.278L483.284 65.3956H484.647L488.653 76.3047H487.268L484.008 67.1214H483.923L480.663 76.3047ZM481.174 72.0433H486.757V73.2152H481.174V72.0433Z" fill="white"/>
<path fill-rule="evenodd" clip-rule="evenodd" d="M24.7871 32.5648H41.1931C41.2989 32.5687 41.4044 32.5469 41.5022 32.5008C41.6 32.4546 41.6879 32.3853 41.7601 32.2974C41.9032 32.1303 41.9826 31.9061 41.9811 31.6732V27.8557C41.9856 27.7372 41.9683 27.619 41.9304 27.5085C41.8924 27.398 41.8346 27.2977 41.7606 27.2138C41.6866 27.13 41.598 27.0645 41.5005 27.0215C41.403 26.9785 41.2986 26.959 41.1941 26.9641H33.2261L35.8401 24.003C37.4322 22.7258 38.8671 21.2142 40.1071 19.508C41.0234 18.1859 41.5169 16.551 41.5071 14.8702C41.5341 13.434 41.1893 12.0202 40.5151 10.8034C39.8039 9.59146 38.7896 8.64755 37.6021 8.09261C36.156 7.41438 34.6007 7.08639 33.0361 7.12972C31.4786 7.09416 29.936 7.47937 28.5361 8.25347C27.2998 8.93615 26.2492 9.98425 25.4951 11.2871C24.7707 12.56 24.3729 14.0358 24.3461 15.5499C24.3465 15.6471 24.3645 15.7431 24.3989 15.8321C24.4333 15.9212 24.4834 16.0013 24.5461 16.0676C24.6095 16.1411 24.6855 16.1991 24.7694 16.238C24.8533 16.277 24.9434 16.2961 25.0341 16.2942H29.1951C29.4309 16.3317 29.6707 16.2692 29.8684 16.1187C30.0661 15.9681 30.2077 15.7402 30.2661 15.4786C30.3878 14.7054 30.6927 13.9841 31.1481 13.3919C31.3898 13.1044 31.6842 12.8804 32.0105 12.7355C32.3369 12.5907 32.6873 12.5286 33.0371 12.5536C33.3535 12.5025 33.6762 12.5356 33.9794 12.6502C34.2827 12.7648 34.5583 12.9577 34.7843 13.2138C35.0103 13.4699 35.1807 13.782 35.2818 14.1255C35.383 14.4691 35.4122 14.8346 35.3671 15.1931C35.3254 16.0055 35.0436 16.7784 34.5671 17.3873C33.8724 18.3393 33.0914 19.2061 32.2371 19.9736C31.2184 20.9251 29.7121 22.2569 27.7181 23.969L24.7871 27.2145C24.5409 27.4204 24.3413 27.6895 24.2045 27.9996C24.0677 28.3097 23.9977 28.652 24.0001 28.9987V31.6744C23.9997 31.7912 24.0204 31.9068 24.061 32.0141C24.1016 32.1215 24.1612 32.2183 24.2361 32.2986C24.3069 32.3834 24.3924 32.4508 24.4871 32.4968C24.5819 32.5428 24.684 32.5652 24.7871 32.5648ZM55.4571 32.5648H59.5511C59.7664 32.5714 59.9754 32.4819 60.1331 32.3155C60.2107 32.2339 60.2719 32.1342 60.3127 32.0234C60.3534 31.9126 60.3726 31.7932 60.3691 31.6732V27.7492H63.1691C63.275 27.7531 63.3804 27.7313 63.4782 27.6852C63.576 27.6391 63.6639 27.5697 63.7361 27.4818C63.8787 27.3145 63.9577 27.0903 63.9561 26.8577V23.1114C63.957 22.991 63.9362 22.8716 63.895 22.7605C63.8537 22.6495 63.7929 22.5491 63.7162 22.4657C63.6395 22.3822 63.5486 22.3173 63.449 22.2751C63.3494 22.2328 63.2433 22.2141 63.1371 22.2199H60.3691V8.48683C60.3725 8.36688 60.3533 8.24748 60.3126 8.13668C60.2719 8.02588 60.2106 7.92626 60.1331 7.84453C59.9753 7.67838 59.7664 7.58891 59.5511 7.59531H54.7641C54.5417 7.58711 54.3207 7.63759 54.1185 7.74277C53.9163 7.84795 53.7385 8.00495 53.5991 8.20136L44.4671 22.1848C44.2524 22.4897 44.131 22.8654 44.1211 23.2553V26.8577C44.1261 27.0923 44.2107 27.3157 44.3572 27.4817C44.5037 27.6477 44.7009 27.7434 44.9081 27.7492H54.6701V31.6732C54.6751 31.9079 54.7597 32.1313 54.9062 32.2973C55.0527 32.4632 55.2499 32.559 55.4571 32.5648ZM54.7961 14.4398V22.4657H49.7261L54.7961 14.4398ZM66.0371 35.5611H68.9651C69.2187 35.5778 69.4701 35.4996 69.6807 35.3385C69.8912 35.1774 70.0491 34.9423 70.1301 34.6695L80.8371 5.63328C80.878 5.52 80.8994 5.39886 80.9001 5.27644C80.8989 5.0826 80.8311 4.89691 80.7111 4.75875C80.6513 4.68487 80.5783 4.6264 80.4968 4.58731C80.4154 4.54822 80.3275 4.52942 80.2391 4.53219H77.2471C76.995 4.52156 76.7465 4.60168 76.5372 4.76105C76.3279 4.92041 76.1686 5.15082 76.0821 5.41918L65.4391 34.4532C65.3978 34.5664 65.3764 34.6876 65.3761 34.81C65.3854 35.0051 65.4581 35.1895 65.5801 35.3277C65.702 35.4659 65.8648 35.5482 66.0371 35.5588V35.5611ZM86.0371 32.5648H90.3191C90.5633 32.5738 90.8039 32.496 91.0072 32.3425C91.2106 32.1889 91.3665 31.9672 91.4531 31.7084L98.6911 13.4803C98.7117 13.4327 98.7747 13.2545 98.8801 12.9456C98.9915 12.591 99.0447 12.2163 99.0371 11.84V8.52195C99.0385 8.39999 99.0184 8.27893 98.978 8.1659C98.9375 8.05287 98.8775 7.95015 98.8015 7.8638C98.7254 7.77745 98.6349 7.70921 98.5352 7.6631C98.4355 7.61699 98.3287 7.59394 98.2211 7.59531H83.3211C83.2131 7.59348 83.1058 7.61622 83.0057 7.6622C82.9056 7.70817 82.8147 7.77644 82.7383 7.86296C82.662 7.94948 82.6017 8.05249 82.5611 8.16588C82.5205 8.27927 82.5004 8.40074 82.5021 8.52308V12.2682C82.5004 12.3905 82.5205 12.512 82.5611 12.6254C82.6017 12.7388 82.662 12.8418 82.7383 12.9283C82.8147 13.0148 82.9056 13.0831 83.0057 13.129C83.1058 13.175 83.2131 13.1978 83.3211 13.1959H92.6731L85.4341 31.4591C85.3911 31.5589 85.3695 31.6687 85.3711 31.7797C85.3686 31.9847 85.4363 32.1829 85.5601 32.3325C85.6197 32.4065 85.6928 32.4651 85.7742 32.5042C85.8557 32.5433 85.9436 32.562 86.0321 32.5591L86.0371 32.5648Z" fill="white"/>
<path d="M401.047 34.2251C399.138 34.2251 397.442 33.88 395.959 33.1896C394.476 32.4993 393.305 31.549 392.444 30.3388C391.592 29.1286 391.148 27.7393 391.114 26.1712H397.251C397.302 27.1342 397.694 27.9098 398.427 28.4979C399.16 29.0774 400.033 29.3672 401.047 29.3672C401.84 29.3672 402.543 29.1925 403.157 28.843C403.771 28.4936 404.252 28.0036 404.601 27.3729C404.951 26.7337 405.121 26.0007 405.113 25.174C405.121 24.3303 404.947 23.593 404.589 22.9624C404.239 22.3317 403.753 21.8416 403.131 21.4922C402.518 21.1342 401.81 20.9553 401.009 20.9553C400.251 20.9467 399.53 21.1129 398.849 21.4538C398.175 21.7947 397.664 22.2592 397.315 22.8473L391.728 21.799L392.866 7.68537H409.664V12.7862H398.069L397.468 18.9609H397.621C398.056 18.2365 398.755 17.6399 399.718 17.1712C400.69 16.6939 401.793 16.4553 403.029 16.4553C404.597 16.4553 405.995 16.8217 407.222 17.5547C408.458 18.2791 409.43 19.2848 410.137 20.5717C410.853 21.8587 411.211 23.3331 411.211 24.995C411.211 26.7933 410.785 28.3871 409.932 29.7763C409.089 31.1655 407.904 32.2564 406.378 33.049C404.861 33.8331 403.084 34.2251 401.047 34.2251ZM425.873 34.5064C423.589 34.5064 421.62 33.9652 419.967 32.8828C418.313 31.7919 417.039 30.228 416.144 28.1911C415.249 26.1456 414.806 23.6868 414.815 20.8146C414.823 17.9425 415.271 15.505 416.157 13.5021C417.052 11.4908 418.322 9.96094 419.967 8.91264C421.62 7.85582 423.589 7.32741 425.873 7.32741C428.157 7.32741 430.126 7.85582 431.779 8.91264C433.441 9.96094 434.72 11.4908 435.615 13.5021C436.509 15.5135 436.953 17.951 436.944 20.8146C436.944 23.6953 436.497 26.1584 435.602 28.2038C434.707 30.2493 433.433 31.8132 431.779 32.8956C430.134 33.9695 428.166 34.5064 425.873 34.5064ZM425.873 29.3288C427.237 29.3288 428.34 28.6342 429.184 27.245C430.028 25.8473 430.445 23.7038 430.437 20.8146C430.437 18.9226 430.245 17.3629 429.862 16.1357C429.478 14.8999 428.945 13.9794 428.264 13.3743C427.582 12.7692 426.785 12.4666 425.873 12.4666C424.518 12.4666 423.423 13.1527 422.588 14.5249C421.752 15.8885 421.33 17.9851 421.322 20.8146C421.313 22.7322 421.497 24.3217 421.872 25.5831C422.255 26.8445 422.792 27.7862 423.482 28.4084C424.173 29.022 424.97 29.3288 425.873 29.3288ZM451.756 34.5064C449.472 34.5064 447.504 33.9652 445.85 32.8828C444.197 31.7919 442.923 30.228 442.028 28.1911C441.133 26.1456 440.69 23.6868 440.698 20.8146C440.707 17.9425 441.154 15.505 442.041 13.5021C442.935 11.4908 444.205 9.96094 445.85 8.91264C447.504 7.85582 449.472 7.32741 451.756 7.32741C454.041 7.32741 456.009 7.85582 457.663 8.91264C459.325 9.96094 460.603 11.4908 461.498 13.5021C462.393 15.5135 462.836 17.951 462.828 20.8146C462.828 23.6953 462.38 26.1584 461.485 28.2038C460.59 30.2493 459.316 31.8132 457.663 32.8956C456.018 33.9695 454.049 34.5064 451.756 34.5064ZM451.756 29.3288C453.12 29.3288 454.224 28.6342 455.068 27.245C455.911 25.8473 456.329 23.7038 456.32 20.8146C456.32 18.9226 456.129 17.3629 455.745 16.1357C455.362 14.8999 454.829 13.9794 454.147 13.3743C453.465 12.7692 452.668 12.4666 451.756 12.4666C450.401 12.4666 449.306 13.1527 448.471 14.5249C447.636 15.8885 447.214 17.9851 447.205 20.8146C447.197 22.7322 447.38 24.3217 447.755 25.5831C448.139 26.8445 448.676 27.7862 449.366 28.4084C450.056 29.022 450.853 29.3288 451.756 29.3288ZM477.64 34.5064C475.356 34.5064 473.387 33.9652 471.734 32.8828C470.08 31.7919 468.806 30.228 467.911 28.1911C467.016 26.1456 466.573 23.6868 466.582 20.8146C466.59 17.9425 467.038 15.505 467.924 13.5021C468.819 11.4908 470.089 9.96094 471.734 8.91264C473.387 7.85582 475.356 7.32741 477.64 7.32741C479.924 7.32741 481.893 7.85582 483.546 8.91264C485.208 9.96094 486.487 11.4908 487.381 13.5021C488.276 15.5135 488.719 17.951 488.711 20.8146C488.711 23.6953 488.264 26.1584 487.369 28.2038C486.474 30.2493 485.2 31.8132 483.546 32.8956C481.901 33.9695 479.933 34.5064 477.64 34.5064ZM477.64 29.3288C479.004 29.3288 480.107 28.6342 480.951 27.245C481.795 25.8473 482.212 23.7038 482.204 20.8146C482.204 18.9226 482.012 17.3629 481.629 16.1357C481.245 14.8999 480.712 13.9794 480.031 13.3743C479.349 12.7692 478.552 12.4666 477.64 12.4666C476.285 12.4666 475.19 13.1527 474.354 14.5249C473.519 15.8885 473.097 17.9851 473.089 20.8146C473.08 22.7322 473.264 24.3217 473.639 25.5831C474.022 26.8445 474.559 27.7862 475.249 28.4084C475.94 29.022 476.737 29.3288 477.64 29.3288ZM500.545 30.0831V11.5717H505.697V30.0831H500.545ZM493.859 23.4098V18.245H512.37V23.4098H493.859Z" fill="#F1C300"/>
</g>
<defs>
<clipPath id="clip0_31_2">
<rect width="513" height="145" fill="white"/>
</clipPath>
</defs>
</svg>
