<svg width="513" height="128" viewBox="0 0 513 128" fill="none" xmlns="http://www.w3.org/2000/svg">
<path d="M14.304 11.8228H10.7528C10.7055 11.4582 10.6084 11.1292 10.4616 10.8356C10.3149 10.542 10.1207 10.2911 9.87926 10.0828C9.63778 9.87443 9.35133 9.71581 9.01989 9.60691C8.69318 9.49327 8.33097 9.43646 7.93324 9.43646C7.22775 9.43646 6.61932 9.60928 6.10795 9.95492C5.60133 10.3006 5.2107 10.8001 4.93608 11.4535C4.66619 12.1069 4.53125 12.8976 4.53125 13.8257C4.53125 14.7916 4.66856 15.6012 4.94318 16.2546C5.22254 16.9033 5.61316 17.3934 6.11506 17.7248C6.62169 18.0515 7.22064 18.2149 7.91193 18.2149C8.30019 18.2149 8.65294 18.1651 8.97017 18.0657C9.29214 17.9663 9.57386 17.8219 9.81534 17.6325C10.0616 17.4384 10.2628 17.204 10.419 16.9294C10.58 16.65 10.6913 16.3351 10.7528 15.9848L14.304 16.0061C14.2424 16.65 14.0554 17.2845 13.7429 17.9095C13.4351 18.5345 13.0114 19.105 12.4716 19.6211C11.9318 20.1325 11.2737 20.5397 10.4972 20.8427C9.72538 21.1457 8.83996 21.2973 7.84091 21.2973C6.52462 21.2973 5.34564 21.0084 4.30398 20.4308C3.26705 19.8484 2.44792 19.0009 1.84659 17.8882C1.24527 16.7755 0.944602 15.4213 0.944602 13.8257C0.944602 12.2253 1.25 10.8687 1.8608 9.75606C2.47159 8.64337 3.29782 7.7982 4.33949 7.22055C5.38116 6.6429 6.5483 6.35407 7.84091 6.35407C8.72159 6.35407 9.53598 6.47718 10.2841 6.72339C11.0322 6.96487 11.6903 7.31998 12.2585 7.78873C12.8267 8.25274 13.2884 8.82329 13.6435 9.50038C13.9986 10.1775 14.2188 10.9516 14.304 11.8228ZM18.3157 21.0984V6.55293H21.8313V12.391H27.5629V6.55293H31.0714V21.0984H27.5629V15.2532H21.8313V21.0984H18.3157ZM38.4229 21.0984H34.6445L39.5522 6.55293H44.2326L49.1403 21.0984H45.3619L41.9457 10.2177H41.832L38.4229 21.0984ZM37.9187 15.374H45.8164V18.0444H37.9187V15.374ZM50.4141 9.40805V6.55293H62.7081V9.40805H58.2976V21.0984H54.8317V9.40805H50.4141Z" fill="white"/>
<path d="M72.7219 21.0984V6.55293H76.2376V18.2433H82.2887V21.0984H72.7219ZM89.6243 6.55293V21.0984H86.1087V6.55293H89.6243ZM97.1339 6.55293L100.387 17.2063H100.507L103.76 6.55293H107.695L102.787 21.0984H98.1069L93.1992 6.55293H97.1339ZM111.261 21.0984V6.55293H121.403V9.40805H114.777V12.391H120.885V15.2532H114.777V18.2433H121.403V21.0984H111.261Z" fill="#E4B800"/>
<path d="M205.545 4.45455V19H202.562L196.773 10.6051H196.681V19H193.165V4.45455H196.191L201.915 12.8352H202.036V4.45455H205.545ZM209.755 19V4.45455H219.897V7.30966H213.271V10.2926H219.379V13.1548H213.271V16.1449H219.897V19H209.755ZM231.961 8.81534C231.914 8.29451 231.703 7.88968 231.329 7.60085C230.96 7.30729 230.432 7.16051 229.745 7.16051C229.291 7.16051 228.912 7.2197 228.609 7.33807C228.306 7.45644 228.079 7.61979 227.927 7.82812C227.776 8.03172 227.697 8.2661 227.693 8.53125C227.683 8.74905 227.726 8.94081 227.82 9.10653C227.92 9.27225 228.062 9.41903 228.247 9.54688C228.436 9.66998 228.663 9.77888 228.928 9.87358C229.194 9.96828 229.492 10.0511 229.823 10.1222L231.073 10.4062C231.793 10.5625 232.427 10.7708 232.977 11.0312C233.531 11.2917 233.995 11.6018 234.369 11.9616C234.748 12.3215 235.034 12.7358 235.228 13.2045C235.422 13.6733 235.522 14.1989 235.526 14.7812C235.522 15.6998 235.29 16.4882 234.83 17.1463C234.371 17.8045 233.711 18.3087 232.849 18.6591C231.992 19.0095 230.957 19.1847 229.745 19.1847C228.528 19.1847 227.468 19.0024 226.563 18.6378C225.659 18.2732 224.956 17.7192 224.454 16.9759C223.952 16.2325 223.694 15.2926 223.68 14.1562H227.046C227.075 14.625 227.2 15.0156 227.423 15.3281C227.645 15.6406 227.951 15.8774 228.339 16.0384C228.732 16.1993 229.186 16.2798 229.703 16.2798C230.176 16.2798 230.579 16.2159 230.91 16.0881C231.246 15.9602 231.504 15.7827 231.684 15.5554C231.864 15.3281 231.956 15.0677 231.961 14.7741C231.956 14.4995 231.871 14.2652 231.705 14.071C231.54 13.8722 231.284 13.7017 230.938 13.5597C230.597 13.4129 230.162 13.2779 229.632 13.1548L228.112 12.7997C226.852 12.5109 225.86 12.0445 225.136 11.4006C224.411 10.7519 224.052 9.87595 224.056 8.77273C224.052 7.87311 224.293 7.08475 224.781 6.40767C225.268 5.73059 225.943 5.20265 226.805 4.82386C227.667 4.44508 228.649 4.25568 229.752 4.25568C230.879 4.25568 231.857 4.44744 232.686 4.83097C233.519 5.20975 234.165 5.74242 234.624 6.42898C235.084 7.11553 235.318 7.91098 235.328 8.81534H231.961ZM247.164 8.81534C247.117 8.29451 246.906 7.88968 246.532 7.60085C246.163 7.30729 245.635 7.16051 244.948 7.16051C244.494 7.16051 244.115 7.2197 243.812 7.33807C243.509 7.45644 243.282 7.61979 243.13 7.82812C242.979 8.03172 242.901 8.2661 242.896 8.53125C242.886 8.74905 242.929 8.94081 243.024 9.10653C243.123 9.27225 243.265 9.41903 243.45 9.54688C243.639 9.66998 243.866 9.77888 244.132 9.87358C244.397 9.96828 244.695 10.0511 245.026 10.1222L246.276 10.4062C246.996 10.5625 247.631 10.7708 248.18 11.0312C248.734 11.2917 249.198 11.6018 249.572 11.9616C249.951 12.3215 250.237 12.7358 250.431 13.2045C250.625 13.6733 250.725 14.1989 250.73 14.7812C250.725 15.6998 250.493 16.4882 250.034 17.1463C249.574 17.8045 248.914 18.3087 248.052 18.6591C247.195 19.0095 246.16 19.1847 244.948 19.1847C243.731 19.1847 242.671 19.0024 241.767 18.6378C240.862 18.2732 240.159 17.7192 239.657 16.9759C239.155 16.2325 238.897 15.2926 238.883 14.1562H242.249C242.278 14.625 242.403 15.0156 242.626 15.3281C242.848 15.6406 243.154 15.8774 243.542 16.0384C243.935 16.1993 244.39 16.2798 244.906 16.2798C245.379 16.2798 245.782 16.2159 246.113 16.0881C246.449 15.9602 246.707 15.7827 246.887 15.5554C247.067 15.3281 247.16 15.0677 247.164 14.7741C247.16 14.4995 247.074 14.2652 246.909 14.071C246.743 13.8722 246.487 13.7017 246.142 13.5597C245.801 13.4129 245.365 13.2779 244.835 13.1548L243.315 12.7997C242.055 12.5109 241.063 12.0445 240.339 11.4006C239.615 10.7519 239.255 9.87595 239.259 8.77273C239.255 7.87311 239.496 7.08475 239.984 6.40767C240.472 5.73059 241.146 5.20265 242.008 4.82386C242.87 4.44508 243.852 4.25568 244.955 4.25568C246.082 4.25568 247.06 4.44744 247.889 4.83097C248.722 5.20975 249.368 5.74242 249.828 6.42898C250.287 7.11553 250.521 7.91098 250.531 8.81534H247.164ZM263.305 4.45455H266.813V13.8366C266.813 14.9209 266.555 15.8655 266.039 16.6705C265.523 17.4706 264.803 18.0909 263.88 18.5312C262.957 18.9669 261.884 19.1847 260.663 19.1847C259.427 19.1847 258.347 18.9669 257.424 18.5312C256.501 18.0909 255.784 17.4706 255.272 16.6705C254.761 15.8655 254.505 14.9209 254.505 13.8366V4.45455H258.021V13.5312C258.021 14.0331 258.13 14.4806 258.347 14.8736C258.57 15.2666 258.88 15.5743 259.278 15.7969C259.676 16.0194 260.137 16.1307 260.663 16.1307C261.188 16.1307 261.648 16.0194 262.041 15.7969C262.438 15.5743 262.749 15.2666 262.971 14.8736C263.194 14.4806 263.305 14.0331 263.305 13.5312V4.45455ZM283.396 4.45455V19H280.413L274.625 10.6051H274.532V19H271.017V4.45455H274.042L279.767 12.8352H279.888V4.45455H283.396ZM290.753 19H286.975L291.882 4.45455H296.563L301.47 19H297.692L294.276 8.11932H294.162L290.753 19ZM290.249 13.2756H298.146V15.946H290.249V13.2756ZM195.765 36.1442C194.96 36.1442 194.269 35.9785 193.692 35.647C193.119 35.3156 192.678 34.8549 192.37 34.2649C192.061 33.6716 191.907 32.9856 191.907 32.2067C191.907 31.4245 192.061 30.7384 192.37 30.1484C192.681 29.5552 193.124 29.0928 193.697 28.7614C194.274 28.4299 194.961 28.2642 195.76 28.2642C196.466 28.2642 197.081 28.3918 197.605 28.647C198.132 28.9022 198.543 29.2635 198.838 29.7308C199.136 30.1948 199.293 30.7401 199.31 31.3665H197.038C196.991 30.9754 196.859 30.6688 196.64 30.4467C196.425 30.2247 196.143 30.1136 195.795 30.1136C195.513 30.1136 195.266 30.1932 195.054 30.3523C194.842 30.508 194.676 30.7401 194.557 31.0483C194.441 31.3532 194.383 31.7311 194.383 32.1818C194.383 32.6326 194.441 33.0137 194.557 33.3253C194.676 33.6335 194.842 33.8672 195.054 34.0263C195.266 34.1821 195.513 34.2599 195.795 34.2599C196.02 34.2599 196.219 34.2119 196.392 34.1158C196.567 34.0196 196.711 33.8788 196.824 33.6932C196.937 33.5043 197.008 33.2756 197.038 33.0071H199.31C199.287 33.6368 199.129 34.187 198.838 34.6577C198.549 35.1283 198.143 35.4946 197.62 35.7564C197.099 36.0149 196.481 36.1442 195.765 36.1442ZM205.519 36.1442C204.717 36.1442 204.027 35.9801 203.45 35.652C202.877 35.3205 202.435 34.8598 202.123 34.2699C201.815 33.6766 201.661 32.9889 201.661 32.2067C201.661 31.4212 201.815 30.7334 202.123 30.1435C202.435 29.5502 202.877 29.0895 203.45 28.7614C204.027 28.4299 204.717 28.2642 205.519 28.2642C206.321 28.2642 207.008 28.4299 207.582 28.7614C208.159 29.0895 208.601 29.5502 208.909 30.1435C209.221 30.7334 209.377 31.4212 209.377 32.2067C209.377 32.9889 209.221 33.6766 208.909 34.2699C208.601 34.8598 208.159 35.3205 207.582 35.652C207.008 35.9801 206.321 36.1442 205.519 36.1442ZM205.534 34.3097C205.825 34.3097 206.072 34.2202 206.274 34.0412C206.476 33.8622 206.631 33.6136 206.737 33.2955C206.846 32.9773 206.901 32.6094 206.901 32.1918C206.901 31.7675 206.846 31.3963 206.737 31.0781C206.631 30.7599 206.476 30.5114 206.274 30.3324C206.072 30.1534 205.825 30.0639 205.534 30.0639C205.232 30.0639 204.977 30.1534 204.768 30.3324C204.562 30.5114 204.405 30.7599 204.296 31.0781C204.19 31.3963 204.137 31.7675 204.137 32.1918C204.137 32.6094 204.19 32.9773 204.296 33.2955C204.405 33.6136 204.562 33.8622 204.768 34.0412C204.977 34.2202 205.232 34.3097 205.534 34.3097ZM212.022 36V28.3636H214.334V29.7656H214.418C214.577 29.3016 214.846 28.9354 215.224 28.6669C215.602 28.3984 216.052 28.2642 216.576 28.2642C217.106 28.2642 217.56 28.4001 217.938 28.6719C218.316 28.9437 218.556 29.3082 218.659 29.7656H218.739C218.881 29.3116 219.16 28.9486 219.574 28.6768C219.988 28.4018 220.477 28.2642 221.04 28.2642C221.763 28.2642 222.35 28.4962 222.8 28.9602C223.251 29.4209 223.477 30.054 223.477 30.8594V36H221.045V31.4162C221.045 31.035 220.948 30.745 220.752 30.5462C220.557 30.344 220.303 30.2429 219.991 30.2429C219.657 30.2429 219.393 30.3523 219.201 30.571C219.012 30.7865 218.918 31.0765 218.918 31.4411V36H216.581V31.3913C216.581 31.0367 216.485 30.7566 216.293 30.5511C216.1 30.3456 215.847 30.2429 215.532 30.2429C215.32 30.2429 215.133 30.2943 214.97 30.397C214.808 30.4964 214.68 30.639 214.587 30.8246C214.498 31.0102 214.453 31.2289 214.453 31.4808V36H212.022ZM226.383 36V28.3636H228.695V29.7656H228.779C228.938 29.3016 229.207 28.9354 229.585 28.6669C229.962 28.3984 230.413 28.2642 230.937 28.2642C231.467 28.2642 231.921 28.4001 232.299 28.6719C232.677 28.9437 232.917 29.3082 233.02 29.7656H233.1C233.242 29.3116 233.52 28.9486 233.935 28.6768C234.349 28.4018 234.838 28.2642 235.401 28.2642C236.124 28.2642 236.711 28.4962 237.161 28.9602C237.612 29.4209 237.837 30.054 237.837 30.8594V36H235.406V31.4162C235.406 31.035 235.309 30.745 235.113 30.5462C234.917 30.344 234.664 30.2429 234.352 30.2429C234.018 30.2429 233.754 30.3523 233.562 30.571C233.373 30.7865 233.278 31.0765 233.278 31.4411V36H230.942V31.3913C230.942 31.0367 230.846 30.7566 230.653 30.5511C230.461 30.3456 230.208 30.2429 229.893 30.2429C229.681 30.2429 229.493 30.2943 229.331 30.397C229.169 30.4964 229.041 30.639 228.948 30.8246C228.859 31.0102 228.814 31.2289 228.814 31.4808V36H226.383ZM240.744 36V28.3636H243.175V36H240.744ZM241.962 27.4737C241.62 27.4737 241.327 27.361 241.082 27.1357C240.837 26.907 240.714 26.6319 240.714 26.3104C240.714 25.9922 240.837 25.7204 241.082 25.495C241.327 25.2663 241.62 25.152 241.962 25.152C242.307 25.152 242.6 25.2663 242.842 25.495C243.087 25.7204 243.21 25.9922 243.21 26.3104C243.21 26.6319 243.087 26.907 242.842 27.1357C242.6 27.361 242.307 27.4737 241.962 27.4737ZM252.789 30.6953L250.557 30.755C250.534 30.5959 250.471 30.455 250.368 30.3324C250.265 30.2064 250.131 30.1087 249.965 30.0391C249.803 29.9661 249.614 29.9297 249.399 29.9297C249.117 29.9297 248.877 29.986 248.678 30.0987C248.482 30.2114 248.386 30.3639 248.389 30.5561C248.386 30.7053 248.446 30.8345 248.568 30.9439C248.694 31.0533 248.918 31.1411 249.24 31.2074L250.711 31.4858C251.473 31.6316 252.04 31.8736 252.411 32.2116C252.786 32.5497 252.975 32.9972 252.978 33.554C252.975 34.0777 252.819 34.5334 252.511 34.9212C252.206 35.3089 251.788 35.6106 251.258 35.826C250.728 36.0381 250.121 36.1442 249.438 36.1442C248.348 36.1442 247.488 35.9205 246.858 35.473C246.232 35.0223 245.874 34.419 245.784 33.6634L248.186 33.6037C248.239 33.8821 248.376 34.0942 248.598 34.2401C248.82 34.3859 249.104 34.4588 249.448 34.4588C249.76 34.4588 250.013 34.4008 250.209 34.2848C250.405 34.1688 250.504 34.0147 250.507 33.8224C250.504 33.6501 250.428 33.5125 250.279 33.4098C250.129 33.3037 249.896 33.2209 249.578 33.1612L248.245 32.9077C247.48 32.7685 246.91 32.5116 246.535 32.1371C246.16 31.7592 245.975 31.2786 245.978 30.6953C245.975 30.1849 246.111 29.7491 246.386 29.3878C246.661 29.0232 247.052 28.7448 247.559 28.5526C248.066 28.3603 248.664 28.2642 249.354 28.2642C250.388 28.2642 251.203 28.4813 251.8 28.9155C252.397 29.3464 252.726 29.9396 252.789 30.6953ZM262.242 30.6953L260.01 30.755C259.987 30.5959 259.924 30.455 259.821 30.3324C259.718 30.2064 259.584 30.1087 259.418 30.0391C259.256 29.9661 259.067 29.9297 258.851 29.9297C258.57 29.9297 258.329 29.986 258.13 30.0987C257.935 30.2114 257.839 30.3639 257.842 30.5561C257.839 30.7053 257.898 30.8345 258.021 30.9439C258.147 31.0533 258.371 31.1411 258.692 31.2074L260.164 31.4858C260.926 31.6316 261.493 31.8736 261.864 32.2116C262.239 32.5497 262.428 32.9972 262.431 33.554C262.428 34.0777 262.272 34.5334 261.964 34.9212C261.659 35.3089 261.241 35.6106 260.711 35.826C260.18 36.0381 259.574 36.1442 258.891 36.1442C257.801 36.1442 256.941 35.9205 256.311 35.473C255.684 35.0223 255.327 34.419 255.237 33.6634L257.638 33.6037C257.691 33.8821 257.829 34.0942 258.051 34.2401C258.273 34.3859 258.556 34.4588 258.901 34.4588C259.213 34.4588 259.466 34.4008 259.662 34.2848C259.857 34.1688 259.957 34.0147 259.96 33.8224C259.957 33.6501 259.88 33.5125 259.731 33.4098C259.582 33.3037 259.349 33.2209 259.03 33.1612L257.698 32.9077C256.932 32.7685 256.362 32.5116 255.988 32.1371C255.613 31.7592 255.428 31.2786 255.431 30.6953C255.428 30.1849 255.563 29.7491 255.839 29.3878C256.114 29.0232 256.505 28.7448 257.012 28.5526C257.519 28.3603 258.117 28.2642 258.807 28.2642C259.841 28.2642 260.656 28.4813 261.253 28.9155C261.849 29.3464 262.179 29.9396 262.242 30.6953ZM265.028 36V28.3636H267.459V36H265.028ZM266.246 27.4737C265.904 27.4737 265.611 27.361 265.366 27.1357C265.121 26.907 264.998 26.6319 264.998 26.3104C264.998 25.9922 265.121 25.7204 265.366 25.495C265.611 25.2663 265.904 25.152 266.246 25.152C266.591 25.152 266.884 25.2663 267.126 25.495C267.371 25.7204 267.494 25.9922 267.494 26.3104C267.494 26.6319 267.371 26.907 267.126 27.1357C266.884 27.361 266.591 27.4737 266.246 27.4737ZM273.971 36.1442C273.169 36.1442 272.479 35.9801 271.903 35.652C271.329 35.3205 270.887 34.8598 270.575 34.2699C270.267 33.6766 270.113 32.9889 270.113 32.2067C270.113 31.4212 270.267 30.7334 270.575 30.1435C270.887 29.5502 271.329 29.0895 271.903 28.7614C272.479 28.4299 273.169 28.2642 273.971 28.2642C274.773 28.2642 275.461 28.4299 276.034 28.7614C276.611 29.0895 277.053 29.5502 277.362 30.1435C277.673 30.7334 277.829 31.4212 277.829 32.2067C277.829 32.9889 277.673 33.6766 277.362 34.2699C277.053 34.8598 276.611 35.3205 276.034 35.652C275.461 35.9801 274.773 36.1442 273.971 36.1442ZM273.986 34.3097C274.278 34.3097 274.524 34.2202 274.727 34.0412C274.929 33.8622 275.083 33.6136 275.189 33.2955C275.298 32.9773 275.353 32.6094 275.353 32.1918C275.353 31.7675 275.298 31.3963 275.189 31.0781C275.083 30.7599 274.929 30.5114 274.727 30.3324C274.524 30.1534 274.278 30.0639 273.986 30.0639C273.684 30.0639 273.429 30.1534 273.22 30.3324C273.015 30.5114 272.857 30.7599 272.748 31.0781C272.642 31.3963 272.589 31.7675 272.589 32.1918C272.589 32.6094 272.642 32.9773 272.748 33.2955C272.857 33.6136 273.015 33.8622 273.22 34.0412C273.429 34.2202 273.684 34.3097 273.986 34.3097ZM282.905 31.6449V36H280.474V28.3636H282.786V29.7656H282.871C283.04 29.2983 283.328 28.9321 283.736 28.6669C284.143 28.3984 284.629 28.2642 285.192 28.2642C285.729 28.2642 286.195 28.3852 286.589 28.6271C286.987 28.8658 287.295 29.2005 287.514 29.6314C287.736 30.0589 287.846 30.5594 287.842 31.1328V36H285.411V31.6101C285.414 31.1858 285.307 30.8544 285.088 30.6158C284.873 30.3771 284.573 30.2578 284.188 30.2578C283.933 30.2578 283.707 30.3142 283.512 30.4268C283.32 30.5362 283.171 30.6937 283.065 30.8991C282.962 31.1046 282.909 31.3532 282.905 31.6449ZM294.317 36.1442C293.518 36.1442 292.829 35.9867 292.249 35.6719C291.672 35.3537 291.228 34.9013 290.916 34.3146C290.608 33.7247 290.454 33.0237 290.454 32.2116C290.454 31.4228 290.61 30.7334 290.921 30.1435C291.233 29.5502 291.672 29.0895 292.239 28.7614C292.806 28.4299 293.473 28.2642 294.242 28.2642C294.786 28.2642 295.283 28.3487 295.734 28.5178C296.185 28.6868 296.574 28.937 296.902 29.2685C297.23 29.5999 297.486 30.0092 297.668 30.4964C297.85 30.9804 297.941 31.5355 297.941 32.1619V32.7685H291.304V31.3565H295.679C295.676 31.098 295.615 30.8677 295.495 30.6655C295.376 30.4633 295.212 30.3059 295.003 30.1932C294.798 30.0772 294.561 30.0192 294.292 30.0192C294.02 30.0192 293.777 30.0805 293.561 30.2031C293.346 30.3224 293.175 30.4865 293.049 30.6953C292.923 30.9008 292.857 31.1345 292.85 31.3963V32.8331C292.85 33.1446 292.912 33.4181 293.034 33.6534C293.157 33.8854 293.331 34.0661 293.556 34.1953C293.782 34.3246 294.05 34.3892 294.362 34.3892C294.577 34.3892 294.773 34.3594 294.948 34.2997C295.124 34.2401 295.275 34.1522 295.401 34.0362C295.527 33.9202 295.621 33.7777 295.684 33.6087L297.916 33.6733C297.824 34.1738 297.62 34.6096 297.305 34.9808C296.993 35.3487 296.584 35.6354 296.077 35.8409C295.57 36.0431 294.983 36.1442 294.317 36.1442ZM303.442 25.8182L303.213 32.8828H301.17L300.941 25.8182H303.442ZM302.189 36.1442C301.834 36.1442 301.529 36.0182 301.274 35.7663C301.022 35.5144 300.896 35.2095 300.896 34.8516C300.896 34.5002 301.022 34.2003 301.274 33.9517C301.529 33.6998 301.834 33.5739 302.189 33.5739C302.53 33.5739 302.83 33.6998 303.089 33.9517C303.35 34.2003 303.481 34.5002 303.481 34.8516C303.481 35.0902 303.42 35.3073 303.297 35.5028C303.178 35.6984 303.021 35.8542 302.825 35.9702C302.633 36.0862 302.421 36.1442 302.189 36.1442Z" fill="white"/>
<path d="M43.1293 52.029V51.0702L46.7301 47.1284C47.1527 46.6668 47.5007 46.2655 47.7741 45.9246C48.0476 45.5801 48.25 45.257 48.3814 44.9551C48.5163 44.6497 48.5838 44.3301 48.5838 43.9963C48.5838 43.6128 48.4915 43.2808 48.3068 43.0002C48.1257 42.7197 47.8771 42.5031 47.5611 42.3504C47.245 42.1977 46.8899 42.1213 46.4957 42.1213C46.0767 42.1213 45.7109 42.2083 45.3984 42.3823C45.0895 42.5528 44.8498 42.7925 44.6793 43.1014C44.5124 43.4104 44.429 43.7726 44.429 44.1881H43.1719C43.1719 43.5489 43.3192 42.9878 43.614 42.5048C43.9087 42.0219 44.31 41.6455 44.8178 41.3756C45.3292 41.1057 45.9027 40.9708 46.5384 40.9708C47.1776 40.9708 47.744 41.1057 48.2376 41.3756C48.7312 41.6455 49.1183 42.0095 49.3988 42.4676C49.6793 42.9257 49.8196 43.4352 49.8196 43.9963C49.8196 44.3976 49.7468 44.79 49.6012 45.1735C49.4592 45.5535 49.2106 45.9779 48.8555 46.4466C48.5039 46.9118 48.0156 47.48 47.3906 48.1512L44.9403 50.7719V50.8571H50.0114V52.029H43.1293ZM53.2212 49.7918V48.7051L58.0153 41.1199H58.8036V42.8031H58.271L54.6488 48.5347V48.6199H61.1048V49.7918H53.2212ZM58.3562 52.029V49.4615V48.9555V41.1199H59.6133V52.029H58.3562ZM68.4788 40.6085L64.9632 53.6696H63.8126L67.3282 40.6085H68.4788ZM71.7885 52.029L76.6678 42.377V42.2918H71.0428V41.1199H78.0314V42.3557L73.1735 52.029H71.7885Z" fill="white"/>
<path d="M207.166 66.8696H203.8V55.9605H207.315C208.373 55.9605 209.279 56.1789 210.032 56.6157C210.785 57.0489 211.362 57.6721 211.763 58.4853C212.164 59.295 212.365 60.2645 212.365 61.3937C212.365 62.5301 212.162 63.5084 211.758 64.3287C211.353 65.1455 210.763 65.774 209.989 66.2144C209.215 66.6512 208.274 66.8696 207.166 66.8696ZM205.121 65.6977H207.081C207.983 65.6977 208.73 65.5237 209.323 65.1757C209.916 64.8277 210.358 64.3323 210.65 63.6895C210.941 63.0468 211.086 62.2815 211.086 61.3937C211.086 60.513 210.943 59.7549 210.655 59.1192C210.367 58.48 209.938 57.99 209.366 57.649C208.794 57.3046 208.082 57.1324 207.23 57.1324H205.121V65.6977ZM216.081 66.8696V55.9605H222.665V57.1324H217.402V60.8184H222.324V61.9903H217.402V65.6977H222.75V66.8696H216.081ZM226.546 66.8696V55.9605H230.232C231.088 55.9605 231.787 56.115 232.33 56.4239C232.877 56.7293 233.282 57.143 233.545 57.665C233.808 58.187 233.939 58.7694 233.939 59.4122C233.939 60.0549 233.808 60.6391 233.545 61.1647C233.286 61.6902 232.884 62.1093 232.341 62.4218C231.798 62.7307 231.102 62.8852 230.253 62.8852H227.611V61.7133H230.21C230.796 61.7133 231.267 61.6121 231.622 61.4097C231.977 61.2073 232.235 60.9338 232.394 60.5894C232.558 60.2414 232.639 59.849 232.639 59.4122C232.639 58.9754 232.558 58.5848 232.394 58.2403C232.235 57.8958 231.975 57.626 231.617 57.4306C231.258 57.2318 230.782 57.1324 230.189 57.1324H227.867V66.8696H226.546ZM246.772 61.415C246.772 62.5656 246.564 63.5599 246.148 64.398C245.733 65.236 245.163 65.8824 244.439 66.3369C243.714 66.7914 242.887 67.0187 241.956 67.0187C241.026 67.0187 240.199 66.7914 239.474 66.3369C238.75 65.8824 238.18 65.236 237.764 64.398C237.349 63.5599 237.141 62.5656 237.141 61.415C237.141 60.2645 237.349 59.2701 237.764 58.4321C238.18 57.594 238.75 56.9477 239.474 56.4931C240.199 56.0386 241.026 55.8113 241.956 55.8113C242.887 55.8113 243.714 56.0386 244.439 56.4931C245.163 56.9477 245.733 57.594 246.148 58.4321C246.564 59.2701 246.772 60.2645 246.772 61.415ZM245.493 61.415C245.493 60.4704 245.335 59.6732 245.019 59.0233C244.707 58.3735 244.282 57.8816 243.746 57.5478C243.213 57.214 242.617 57.0471 241.956 57.0471C241.296 57.0471 240.697 57.214 240.161 57.5478C239.629 57.8816 239.204 58.3735 238.888 59.0233C238.576 59.6732 238.419 60.4704 238.419 61.415C238.419 62.3596 238.576 63.1569 238.888 63.8067C239.204 64.4566 239.629 64.9484 240.161 65.2822C240.697 65.616 241.296 65.7829 241.956 65.7829C242.617 65.7829 243.213 65.616 243.746 65.2822C244.282 64.9484 244.707 64.4566 245.019 63.8067C245.335 63.1569 245.493 62.3596 245.493 61.415ZM256.459 58.6877C256.395 58.148 256.136 57.7289 255.681 57.4306C255.227 57.1324 254.669 56.9832 254.009 56.9832C253.526 56.9832 253.103 57.0613 252.741 57.2176C252.382 57.3738 252.102 57.5887 251.899 57.8621C251.7 58.1355 251.601 58.4463 251.601 58.7943C251.601 59.0855 251.67 59.3358 251.809 59.5453C251.951 59.7513 252.132 59.9235 252.352 60.062C252.572 60.197 252.803 60.3088 253.044 60.3976C253.286 60.4828 253.508 60.5521 253.71 60.6054L254.818 60.9037C255.102 60.9782 255.418 61.0812 255.766 61.2126C256.118 61.344 256.453 61.5233 256.773 61.7506C257.096 61.9743 257.363 62.262 257.572 62.6135C257.782 62.9651 257.886 63.3966 257.886 63.9079C257.886 64.4974 257.732 65.0301 257.423 65.5059C257.118 65.9818 256.67 66.36 256.081 66.6405C255.495 66.9211 254.783 67.0613 253.945 67.0613C253.163 67.0613 252.487 66.9353 251.915 66.6831C251.347 66.431 250.9 66.0794 250.573 65.6284C250.25 65.1775 250.067 64.6537 250.024 64.0571H251.388C251.423 64.469 251.562 64.8099 251.803 65.0798C252.048 65.3461 252.357 65.545 252.73 65.6764C253.107 65.8042 253.511 65.8681 253.945 65.8681C254.449 65.8681 254.902 65.7865 255.303 65.6231C255.704 65.4562 256.022 65.2254 256.256 64.9306C256.491 64.6324 256.608 64.2843 256.608 63.8866C256.608 63.5244 256.507 63.2297 256.304 63.0024C256.102 62.7751 255.836 62.5904 255.505 62.4484C255.175 62.3064 254.818 62.1821 254.435 62.0755L253.092 61.692C252.24 61.447 251.565 61.0972 251.068 60.6427C250.571 60.1881 250.322 59.5933 250.322 58.8582C250.322 58.2474 250.488 57.7147 250.818 57.2602C251.152 56.8021 251.599 56.447 252.16 56.1949C252.725 55.9392 253.355 55.8113 254.051 55.8113C254.754 55.8113 255.379 55.9374 255.926 56.1895C256.473 56.4381 256.906 56.779 257.226 57.2123C257.549 57.6455 257.719 58.1373 257.737 58.6877H256.459ZM262.879 55.9605V66.8696H261.558V55.9605H262.879ZM266.431 57.1324V55.9605H274.613V57.1324H271.183V66.8696H269.862V57.1324H266.431ZM286.903 61.415C286.903 62.5656 286.695 63.5599 286.279 64.398C285.864 65.236 285.294 65.8824 284.569 66.3369C283.845 66.7914 283.018 67.0187 282.087 67.0187C281.157 67.0187 280.329 66.7914 279.605 66.3369C278.881 65.8824 278.311 65.236 277.895 64.398C277.48 63.5599 277.272 62.5656 277.272 61.415C277.272 60.2645 277.48 59.2701 277.895 58.4321C278.311 57.594 278.881 56.9477 279.605 56.4931C280.329 56.0386 281.157 55.8113 282.087 55.8113C283.018 55.8113 283.845 56.0386 284.569 56.4931C285.294 56.9477 285.864 57.594 286.279 58.4321C286.695 59.2701 286.903 60.2645 286.903 61.415ZM285.624 61.415C285.624 60.4704 285.466 59.6732 285.15 59.0233C284.838 58.3735 284.413 57.8816 283.877 57.5478C283.344 57.214 282.748 57.0471 282.087 57.0471C281.427 57.0471 280.828 57.214 280.292 57.5478C279.759 57.8816 279.335 58.3735 279.019 59.0233C278.706 59.6732 278.55 60.4704 278.55 61.415C278.55 62.3596 278.706 63.1569 279.019 63.8067C279.335 64.4566 279.759 64.9484 280.292 65.2822C280.828 65.616 281.427 65.7829 282.087 65.7829C282.748 65.7829 283.344 65.616 283.877 65.2822C284.413 64.9484 284.838 64.4566 285.15 63.8067C285.466 63.1569 285.624 62.3596 285.624 61.415ZM200.728 84.8696V73.9605H207.312V75.1324H202.049V78.8184H206.971V79.9903H202.049V83.6977H207.397V84.8696H200.728ZM216.911 84.8696V73.9605H220.597C221.453 73.9605 222.153 74.115 222.696 74.4239C223.243 74.7293 223.648 75.143 223.911 75.665C224.173 76.187 224.305 76.7694 224.305 77.4122C224.305 78.0549 224.173 78.6391 223.911 79.1647C223.651 79.6902 223.25 80.1093 222.707 80.4218C222.163 80.7307 221.467 80.8852 220.619 80.8852H217.977V79.7133H220.576C221.162 79.7133 221.633 79.6121 221.988 79.4097C222.343 79.2073 222.6 78.9338 222.76 78.5894C222.923 78.2414 223.005 77.849 223.005 77.4122C223.005 76.9754 222.923 76.5848 222.76 76.2403C222.6 75.8958 222.341 75.626 221.982 75.4306C221.624 75.2318 221.148 75.1324 220.555 75.1324H218.232V84.8696H216.911ZM227.933 84.8696V73.9605H231.619C232.471 73.9605 233.171 74.1061 233.718 74.3973C234.265 74.6849 234.669 75.0809 234.932 75.5851C235.195 76.0894 235.326 76.6629 235.326 77.3056C235.326 77.9484 235.195 78.5184 234.932 79.0155C234.669 79.5127 234.266 79.9033 233.723 80.1874C233.18 80.4679 232.485 80.6082 231.64 80.6082H228.657V79.415H231.598C232.18 79.415 232.649 79.3298 233.004 79.1593C233.363 78.9889 233.622 78.7474 233.782 78.4349C233.945 78.1189 234.027 77.7424 234.027 77.3056C234.027 76.8689 233.945 76.4871 233.782 76.1604C233.618 75.8337 233.357 75.5816 232.999 75.404C232.64 75.2229 232.166 75.1324 231.576 75.1324H229.254V84.8696H227.933ZM233.068 79.969L235.752 84.8696H234.218L231.576 79.969H233.068ZM239.028 84.8696V73.9605H245.611V75.1324H240.349V78.8184H245.27V79.9903H240.349V83.6977H245.697V84.8696H239.028ZM249.492 84.8696V73.9605H250.813V83.6977H255.884V84.8696H249.492ZM260.751 73.9605V84.8696H259.43V73.9605H260.751ZM264.9 84.8696V73.9605H271.483V75.1324H266.221V78.8184H271.143V79.9903H266.221V83.6977H271.569V84.8696H264.9ZM275.812 73.9605L279.051 83.1437H279.178L282.417 73.9605H283.802L279.796 84.8696H278.433L274.427 73.9605H275.812ZM295.693 79.415C295.693 80.5656 295.485 81.5599 295.07 82.398C294.654 83.236 294.084 83.8824 293.36 84.3369C292.636 84.7914 291.808 85.0187 290.878 85.0187C289.947 85.0187 289.12 84.7914 288.395 84.3369C287.671 83.8824 287.101 83.236 286.686 82.398C286.27 81.5599 286.062 80.5656 286.062 79.415C286.062 78.2645 286.27 77.2701 286.686 76.4321C287.101 75.594 287.671 74.9477 288.395 74.4931C289.12 74.0386 289.947 73.8113 290.878 73.8113C291.808 73.8113 292.636 74.0386 293.36 74.4931C294.084 74.9477 294.654 75.594 295.07 76.4321C295.485 77.2701 295.693 78.2645 295.693 79.415ZM294.415 79.415C294.415 78.4704 294.257 77.6732 293.941 77.0233C293.628 76.3735 293.204 75.8816 292.667 75.5478C292.135 75.214 291.538 75.0471 290.878 75.0471C290.217 75.0471 289.619 75.214 289.083 75.5478C288.55 75.8816 288.126 76.3735 287.81 77.0233C287.497 77.6732 287.341 78.4704 287.341 79.415C287.341 80.3596 287.497 81.1569 287.81 81.8067C288.126 82.4566 288.55 82.9484 289.083 83.2822C289.619 83.616 290.217 83.7829 290.878 83.7829C291.538 83.7829 292.135 83.616 292.667 83.2822C293.204 82.9484 293.628 82.4566 293.941 81.8067C294.257 81.1569 294.415 80.3596 294.415 79.415Z" fill="white"/>
<path d="M425.264 45.5C425.147 45.1413 424.992 44.82 424.8 44.5359C424.612 44.2482 424.387 44.0032 424.124 43.8008C423.865 43.5984 423.57 43.4439 423.24 43.3374C422.909 43.2308 422.547 43.1776 422.153 43.1776C421.507 43.1776 420.919 43.3445 420.39 43.6783C419.861 44.0121 419.44 44.5039 419.127 45.1538C418.815 45.8036 418.659 46.6009 418.659 47.5455C418.659 48.4901 418.817 49.2873 419.133 49.9371C419.449 50.587 419.877 51.0788 420.416 51.4126C420.956 51.7464 421.563 51.9134 422.238 51.9134C422.863 51.9134 423.414 51.7802 423.889 51.5138C424.369 51.244 424.742 50.864 425.008 50.3739C425.278 49.8803 425.413 49.2997 425.413 48.6321L425.818 48.7173H422.536V47.5455H426.691V48.7173C426.691 49.6158 426.5 50.397 426.116 51.0611C425.736 51.7251 425.21 52.2401 424.539 52.6058C423.872 52.968 423.105 53.1491 422.238 53.1491C421.272 53.1491 420.424 52.9219 419.692 52.4673C418.964 52.0128 418.396 51.3665 417.987 50.5284C417.583 49.6903 417.38 48.696 417.38 47.5455C417.38 46.6825 417.496 45.9066 417.726 45.2177C417.961 44.5252 418.291 43.9357 418.717 43.4492C419.143 42.9627 419.648 42.5898 420.23 42.3306C420.812 42.0714 421.453 41.9418 422.153 41.9418C422.728 41.9418 423.264 42.0288 423.762 42.2028C424.262 42.3732 424.708 42.6165 425.099 42.9325C425.493 43.245 425.821 43.6197 426.084 44.0565C426.347 44.4897 426.528 44.9709 426.627 45.5H425.264ZM431.775 42.0909V53H430.454V42.0909H431.775ZM445.128 47.5455C445.128 48.696 444.92 49.6903 444.505 50.5284C444.089 51.3665 443.519 52.0128 442.795 52.4673C442.071 52.9219 441.243 53.1491 440.313 53.1491C439.382 53.1491 438.555 52.9219 437.831 52.4673C437.106 52.0128 436.536 51.3665 436.121 50.5284C435.705 49.6903 435.497 48.696 435.497 47.5455C435.497 46.3949 435.705 45.4006 436.121 44.5625C436.536 43.7244 437.106 43.0781 437.831 42.6236C438.555 42.169 439.382 41.9418 440.313 41.9418C441.243 41.9418 442.071 42.169 442.795 42.6236C443.519 43.0781 444.089 43.7244 444.505 44.5625C444.92 45.4006 445.128 46.3949 445.128 47.5455ZM443.85 47.5455C443.85 46.6009 443.692 45.8036 443.376 45.1538C443.063 44.5039 442.639 44.0121 442.103 43.6783C441.57 43.3445 440.973 43.1776 440.313 43.1776C439.652 43.1776 439.054 43.3445 438.518 43.6783C437.985 44.0121 437.561 44.5039 437.245 45.1538C436.932 45.8036 436.776 46.6009 436.776 47.5455C436.776 48.4901 436.932 49.2873 437.245 49.9371C437.561 50.587 437.985 51.0788 438.518 51.4126C439.054 51.7464 439.652 51.9134 440.313 51.9134C440.973 51.9134 441.57 51.7464 442.103 51.4126C442.639 51.0788 443.063 50.587 443.376 49.9371C443.692 49.2873 443.85 48.4901 443.85 47.5455ZM457.628 45.5H456.307C456.229 45.12 456.092 44.7862 455.897 44.4986C455.705 44.2109 455.47 43.9695 455.193 43.7741C454.92 43.5753 454.616 43.4261 454.283 43.3267C453.949 43.2273 453.601 43.1776 453.239 43.1776C452.578 43.1776 451.98 43.3445 451.443 43.6783C450.911 44.0121 450.486 44.5039 450.17 45.1538C449.858 45.8036 449.702 46.6009 449.702 47.5455C449.702 48.4901 449.858 49.2873 450.17 49.9371C450.486 50.587 450.911 51.0788 451.443 51.4126C451.98 51.7464 452.578 51.9134 453.239 51.9134C453.601 51.9134 453.949 51.8636 454.283 51.7642C454.616 51.6648 454.92 51.5174 455.193 51.3221C455.47 51.1232 455.705 50.88 455.897 50.5923C456.092 50.3011 456.229 49.9673 456.307 49.5909H457.628C457.528 50.1484 457.347 50.6474 457.084 51.0877C456.822 51.5281 456.495 51.9027 456.104 52.2116C455.714 52.517 455.275 52.7496 454.789 52.9094C454.306 53.0692 453.789 53.1491 453.239 53.1491C452.308 53.1491 451.481 52.9219 450.756 52.4673C450.032 52.0128 449.462 51.3665 449.046 50.5284C448.631 49.6903 448.423 48.696 448.423 47.5455C448.423 46.3949 448.631 45.4006 449.046 44.5625C449.462 43.7244 450.032 43.0781 450.756 42.6236C451.481 42.169 452.308 41.9418 453.239 41.9418C453.789 41.9418 454.306 42.0217 454.789 42.1815C455.275 42.3413 455.714 42.5756 456.104 42.8846C456.495 43.19 456.822 43.5629 457.084 44.0032C457.347 44.44 457.528 44.9389 457.628 45.5ZM461.262 53V42.0909H462.583V46.9489H468.4V42.0909H469.721V53H468.4V48.1207H462.583V53H461.262ZM475.187 42.0909V53H473.866V42.0909H475.187Z" fill="white"/>
<path d="M386.83 13.5824C386.83 15.1828 386.522 16.5393 385.906 17.652C385.291 18.7647 384.457 19.6098 383.406 20.1875C382.36 20.7651 381.186 21.054 379.884 21.054C378.577 21.054 377.4 20.7628 376.354 20.1804C375.307 19.598 374.476 18.7528 373.861 17.6449C373.25 16.5322 372.945 15.178 372.945 13.5824C372.945 11.982 373.25 10.6255 373.861 9.51277C374.476 8.40008 375.307 7.55491 376.354 6.97726C377.4 6.39961 378.577 6.11078 379.884 6.11078C381.186 6.11078 382.36 6.39961 383.406 6.97726C384.457 7.55491 385.291 8.40008 385.906 9.51277C386.522 10.6255 386.83 11.982 386.83 13.5824ZM383.236 13.5824C383.236 12.6354 383.101 11.8352 382.831 11.1818C382.566 10.5284 382.182 10.0336 381.68 9.69743C381.183 9.36126 380.584 9.19317 379.884 9.19317C379.188 9.19317 378.589 9.36126 378.087 9.69743C377.585 10.0336 377.199 10.5284 376.929 11.1818C376.664 11.8352 376.531 12.6354 376.531 13.5824C376.531 14.5293 376.664 15.3295 376.929 15.9829C377.199 16.6364 377.585 17.1311 378.087 17.4673C378.589 17.8035 379.188 17.9716 379.884 17.9716C380.584 17.9716 381.183 17.8035 381.68 17.4673C382.182 17.1311 382.566 16.6364 382.831 15.9829C383.101 15.3295 383.236 14.5293 383.236 13.5824ZM390.682 20.8551V6.30965H394.198V18H400.249V20.8551H390.682ZM401.616 9.16476V6.30965H413.91V9.16476H409.499V20.8551H406.033V9.16476H401.616ZM417.427 20.8551V6.30965H423.435C424.524 6.30965 425.464 6.50614 426.255 6.89914C427.05 7.28739 427.663 7.84611 428.094 8.57527C428.525 9.2997 428.741 10.1591 428.741 11.1534C428.741 12.1619 428.52 13.0189 428.08 13.7244C427.64 14.4252 427.015 14.9602 426.205 15.3295C425.395 15.6941 424.437 15.8764 423.329 15.8764H419.529V13.1065H422.675C423.206 13.1065 423.648 13.0379 424.003 12.9006C424.363 12.7585 424.635 12.5454 424.82 12.2614C425.005 11.9725 425.097 11.6032 425.097 11.1534C425.097 10.7036 425.005 10.3319 424.82 10.0383C424.635 9.74005 424.363 9.51751 424.003 9.37073C423.643 9.21921 423.201 9.14346 422.675 9.14346H420.942V20.8551H417.427ZM425.616 14.2074L429.238 20.8551H425.402L421.851 14.2074H425.616ZM432.469 20.8551V6.30965H442.611V9.16476H435.984V12.1477H442.092V15.0099H435.984V18H442.611V20.8551H432.469Z" fill="white"/>
<path d="M452.681 20.8551V18.3267L457.986 13.6818C458.384 13.322 458.723 12.9929 459.002 12.6946C459.281 12.3916 459.494 12.0885 459.641 11.7855C459.788 11.4777 459.861 11.1439 459.861 10.7841C459.861 10.3816 459.774 10.0383 459.599 9.75425C459.423 9.46542 459.182 9.24289 458.874 9.08664C458.566 8.93039 458.214 8.85226 457.816 8.85226C457.414 8.85226 457.061 8.93512 456.758 9.10084C456.455 9.26183 456.218 9.4962 456.048 9.80397C455.882 10.1117 455.799 10.4858 455.799 10.9261H452.468C452.468 9.93654 452.691 9.0819 453.136 8.36221C453.581 7.64251 454.206 7.08853 455.011 6.70027C455.82 6.30728 456.76 6.11078 457.83 6.11078C458.933 6.11078 459.892 6.29544 460.707 6.66476C461.521 7.03408 462.151 7.55018 462.596 8.21306C463.046 8.8712 463.271 9.63588 463.271 10.5071C463.271 11.0611 463.159 11.6103 462.937 12.1548C462.714 12.6993 462.314 13.3007 461.736 13.9588C461.164 14.6169 460.349 15.4053 459.293 16.3239L457.553 17.929V18.0213H463.448V20.8551H452.681ZM473.251 21.2102C471.982 21.2102 470.888 20.9096 469.969 20.3082C469.051 19.7022 468.343 18.8333 467.846 17.7017C467.349 16.5653 467.102 15.1993 467.107 13.6037C467.112 12.008 467.36 10.6539 467.853 9.54118C468.35 8.42376 469.055 7.57385 469.969 6.99147C470.888 6.40434 471.982 6.11078 473.251 6.11078C474.52 6.11078 475.613 6.40434 476.532 6.99147C477.455 7.57385 478.165 8.42376 478.662 9.54118C479.16 10.6586 479.406 12.0128 479.401 13.6037C479.401 15.2041 479.153 16.5724 478.655 17.7088C478.158 18.8452 477.45 19.714 476.532 20.3153C475.618 20.9119 474.524 21.2102 473.251 21.2102ZM473.251 18.3338C474.008 18.3338 474.621 17.9479 475.09 17.1761C475.559 16.3996 475.791 15.2088 475.786 13.6037C475.786 12.5525 475.68 11.6861 475.466 11.0043C475.253 10.3177 474.957 9.80633 474.579 9.47016C474.2 9.13398 473.757 8.9659 473.251 8.9659C472.498 8.9659 471.889 9.34705 471.425 10.1094C470.961 10.8669 470.727 12.0317 470.722 13.6037C470.717 14.669 470.819 15.5521 471.028 16.2528C471.241 16.9536 471.539 17.4768 471.922 17.8224C472.306 18.1633 472.749 18.3338 473.251 18.3338ZM489.23 21.2102C487.961 21.2102 486.868 20.9096 485.949 20.3082C485.03 19.7022 484.323 18.8333 483.825 17.7017C483.328 16.5653 483.082 15.1993 483.087 13.6037C483.092 12.008 483.34 10.6539 483.833 9.54118C484.33 8.42376 485.035 7.57385 485.949 6.99147C486.868 6.40434 487.961 6.11078 489.23 6.11078C490.499 6.11078 491.593 6.40434 492.512 6.99147C493.435 7.57385 494.145 8.42376 494.642 9.54118C495.139 10.6586 495.386 12.0128 495.381 13.6037C495.381 15.2041 495.132 16.5724 494.635 17.7088C494.138 18.8452 493.43 19.714 492.512 20.3153C491.598 20.9119 490.504 21.2102 489.23 21.2102ZM489.23 18.3338C489.988 18.3338 490.601 17.9479 491.07 17.1761C491.538 16.3996 491.771 15.2088 491.766 13.6037C491.766 12.5525 491.659 11.6861 491.446 11.0043C491.233 10.3177 490.937 9.80633 490.558 9.47016C490.18 9.13398 489.737 8.9659 489.23 8.9659C488.477 8.9659 487.869 9.34705 487.405 10.1094C486.941 10.8669 486.707 12.0317 486.702 13.6037C486.697 14.669 486.799 15.5521 487.007 16.2528C487.22 16.9536 487.519 17.4768 487.902 17.8224C488.286 18.1633 488.728 18.3338 489.23 18.3338ZM505.21 21.2102C503.941 21.2102 502.847 20.9096 501.929 20.3082C501.01 19.7022 500.302 18.8333 499.805 17.7017C499.308 16.5653 499.062 15.1993 499.066 13.6037C499.071 12.008 499.32 10.6539 499.812 9.54118C500.309 8.42376 501.015 7.57385 501.929 6.99147C502.847 6.40434 503.941 6.11078 505.21 6.11078C506.479 6.11078 507.573 6.40434 508.491 6.99147C509.414 7.57385 510.125 8.42376 510.622 9.54118C511.119 10.6586 511.365 12.0128 511.361 13.6037C511.361 15.2041 511.112 16.5724 510.615 17.7088C510.118 18.8452 509.41 19.714 508.491 20.3153C507.577 20.9119 506.484 21.2102 505.21 21.2102ZM505.21 18.3338C505.968 18.3338 506.581 17.9479 507.049 17.1761C507.518 16.3996 507.75 15.2088 507.745 13.6037C507.745 12.5525 507.639 11.6861 507.426 11.0043C507.213 10.3177 506.917 9.80633 506.538 9.47016C506.159 9.13398 505.717 8.9659 505.21 8.9659C504.457 8.9659 503.849 9.34705 503.385 10.1094C502.921 10.8669 502.686 12.0317 502.682 13.6037C502.677 14.669 502.779 15.5521 502.987 16.2528C503.2 16.9536 503.498 17.4768 503.882 17.8224C504.265 18.1633 504.708 18.3338 505.21 18.3338Z" fill="#F1C300"/>
</svg>
